<?xml version="1.0" encoding="UTF-8"?>
<svg id="Layer_1" data-name="Layer 1" xmlns="http://www.w3.org/2000/svg" xmlns:xlink="http://www.w3.org/1999/xlink" viewBox="0 0 1500 1500">
  <defs>
    <style>
      .cls-1 {
        fill: #232120;
      }

      .cls-2 {
        fill: #7b7b7b;
      }

      .cls-3 {
        fill: #fff;
      }

      .cls-4, .cls-5 {
        fill: none;
      }

      .cls-6 {
        fill: #545960;
      }

      .cls-7 {
        fill: #f26b6c;
      }

      .cls-7, .cls-5 {
        stroke: #000;
        stroke-miterlimit: 10;
        stroke-width: 10px;
      }

      .cls-8 {
        fill: #fbd9be;
      }

      .cls-9 {
        fill: #0e0e0e;
      }

      .cls-10 {
        clip-path: url(#clippath);
      }
    </style>
    <clipPath id="clippath">
      <circle class="cls-4" cx="750" cy="750" r="744.75"/>
    </clipPath>
  </defs>
  <circle class="cls-7" cx="750" cy="750" r="744.75"/>
  <g class="cls-10">
    <g>
      <path class="cls-2" d="M54.53,1100.91l21.76-54.67,48.46-80.06,55.77-53.58,86.44-60.19,72.69-22.12,60.04-11.59,10.53-29.5,15.69-29.5,13.8-13.69,25.2,6.1,27.68,14.9,24.02,6.39,11.04,33.71,21.62,32.66,26.37,24.01,44.28,16.56c36.47,9.18,113.51,28.52,149.47,37.49l62.19-34.87,48.74-6.1,47.84-10.46,63.63-6.97,54.21-12.27,43.33-22.95,40.1-41.48,7.93-53.2-55.88-49.25-81.26-64.08,8.32-16.6s69.6,5.4,102.18,28.44c32.58,23.04,53.72,44.24,53.72,44.24l30.37,79.84-16.67,41.31-35.82,43.19-20.42,16.71-21.71,10.68-33.71,14.75-40.03,20.01,16.85,4.21,94.06-29.07,66.46-23.66,30.15,5.32,51.62,23.18,73.74,36.87,85.11,56.11,24.99,29.43-8.59,21.81-30.07,62.62-29.98,51.17-30.61,44.53-84.05,96.3-60.59,53.24-68.94,48.82-85.9,46.92-102.3,39.32-108.11,24.77-106.91,9.34-106.43-5.33-67.66-10.91-79.04-20.71-70.95-26.49-64.46-31.29-49.67-29.41-60.43-43.01-63.32-55.43-57.53-62.42-43.92-58.47-35.46-55.62"/>
      <g>
        <path class="cls-9" d="M193.68,941.69c-3.14,22.96-4.96,45.81-4.07,69.07.15,4.04.38,9.62.68,13.4,3.58,45.35,17.98,96.19,35.56,140.67,2.42,1.7,3.13,12.16,6.02,11.4,2.62-.69.38-48.2.7-54.27.55-10.6,2.07-27.13,4.18-37.37.31-1.48.37-5.01,2.5-4.85.23,3.29-.35,6.74.04,10.03,11.23,95.41,27.18,190.17,49.56,283.48-2.32.6-2.68-.95-4.03-1.99-31.99-24.75-40.49-87.5-47.06-124.5-5.58-31.44-25.4-59.6-36.67-89.31-22.77-60-39.92-153.37-10.68-213.07.94-1.92-.29-3.36,3.27-2.68Z"/>
        <path class="cls-9" d="M1395.89,1047.57c-13.04,47.12-28.69,93.55-42.49,140.44-11.35,38.57-28.26,127.26-52.1,155.64-1.55,1.85-3.06,4.51-5.91,4.13-1.48-9.56,3.17-18.33,3.99-27.5.13-1.44,1.07-6.24-1.3-5.99-9.53,23.48-24.85,47.26-45.73,62.17-4.24,3.02-9.34,7.44-14.59,7.51-1.62-1.62,17.58-36.21,19.91-41.06,27.6-57.52,47.6-111.86,71.92-170.67,13.54-32.74,39.43-96.37,61.74-121.88,1.34-1.53,2.06-3.31,4.58-2.78Z"/>
        <path class="cls-9" d="M132.02,1022.1c9.42,43.97,21.32,87.35,35.59,129.95,18.97,56.66,41.86,110.3,65.64,164.88,1.23,2.82,9.47,15.05,7.35,17.43-2.54.15-4.58-2.08-6.56-3.48-71.75-50.87-106.7-208.83-105.74-292.04.04-3.69.61-11.05,1.06-14.77.23-1.88.78-3.87,2.67-1.98Z"/>
        <path class="cls-8" d="M488.55,703.79c-1.68,6.89-7.59-9.24-7.81-11.07-.35-2.89,2.83-15.87-3.58-13.75-1.09.36-4.45,9.85-5.96,11.49-2,2.16-5.86,1.71-7.14,4.92l-2.29,13.1c-3.4-13.86.04-26.53,1.32-40.19-9.63,2.66-14.41,15.24-18.59,23.63-1.55,3.13-1.61,3.5-1.56-.21.18-12.85,17.61-32.3,26.16-42.22,5.73-6.64,24.37-18.91,18.21-28.58-5.28-8.28-20.25,3.49-25.81,4.89-13.36,3.35-23.63-4.49-14.49-17.16,1.41-1.96,9.15-9.61,11.06-10.38,4.74-1.92,9-.38,13.57-1.17,12.87-2.22,22.88-7.53,33.7-14.55,3.17-2.05,11.64-10.06,13.64-10.6,3.64-.98,11.93,12,13.88,15.22s-.2,5.75,5.27,4.74c1.29-15.56,3.39-35.23-1.28-50.33-2.74-8.86-14.57-26.12-22.17-31.44-17.85-12.49-.97,15.03-3.35,17.42-3.98.85-7.74-1.16-11.39-1.35-10.5-.54-15.77-2.37-25.77-3.73-5.05-.69-9.29,2.61-15.1-2.98,14.09-11.96,42.29-24.81,20.75-45.54-1.12,8.34.8,14.47-6.03,20.76-13.82,12.75-26.41.79-40.89.57-17.41-.28-49.81,15.57-46.08-17.84,3.81-34.1,52.59-76.06,45.12-112.42-2.03-9.9-10.45-16.66-11.62-28.58-1.84-18.72,12.58-40.34,17.65-58.46,10.97-39.19,11.11-67.19,33.91-104.14,73.77-119.57,295.87-152.59,416.52-99.1,127.2,56.4,165.62,210.28,118.83,334.23-10.52,27.88-25.05,53.19-32.58,82.68-9.35,36.64-14.82,101.59-6.31,138.2,2.99,12.84,5.65,30.83,9.76,45.41,3.13,11.09,16.88,38.03,17.1,46.01.08,2.93-.55,3.99-1.62,6.44-7.98,18.23-41.99,53.06-57.4,67.23-50.29,46.26-109.55,81.92-168.86,115.35-1.44.74-2.84.53-4.36.33-11.83-1.62-38.33-9-49.63-13.49-39.78-15.8-83.17-77.16-85.41-120.3,1.48-2,26.42,18.14,29.03,19.88,16.64,11.06,36.58,22.75,55.65,28.79,1.71.54,5.74,2.6,5.1-1.07-9.88-6.1-19.31-12.59-28.15-20.1-20.03-17.02-35.31-38.88-57.44-53.81-3.46-2.34-24.17-13.15-24.27-14.57-.19-2.49,4.14-1.43,5.34-1.37,7.22.37,28.14,5.95,32.62,4.53,10.37-3.29-16.61-8.26-13.85-14.55l32.15-4.03c.19-5-9.4-4.83-3.17-9.2,5.94-4.17,32.96-5.86,36.68-9.58,1.97-1.96-.15-2.42-2-2.65-2.13-.27-13.41-.64-14.09-1.36-.14-.15-.12-3.83,0-3.99.65-.8,15.62-2.96,20.08-4.74,3.09-1.23,16.5-8.4,17.44-10.72,1.85-4.57-9.58.51-10.7-.66-2.37-6.25,4.05-9.15,5.24-11.77,1.34-2.95,3.88-10.94,5.15-14.67,2.48-7.26,5.07-15.63,5.68-23.15h4.01c1.67,11.51-3.73,21.2-5.35,32.17,1.32,1.49,7.78-5.56,8.72-6.68,7.48-8.83,11.58-22.02,11.38-33.52,8.89.4,1.26,25.32,2.68,26.79,3.6.64,6.04-2.21,8.03-4.69,9.18-11.48,24.23-47.4,24.02-61.8-.03-2.12-1.66-4.19-3.23-1.85-2.84,4.21-3.07,13.07-8.7,16.08,1.02-3.31-1.36-7.51-1.21-10.12.11-1.85,2.11-3.34,2.41-5.43,2.32-16.28,4.11-24.66-1.91-40.72-1.17-3.11-12.94-27.61-18.06-22.8,4.47,10.74,12.51,21.24,11.39,33.49-8.21-10.27-9.75-29.8-24.8-32.15,4.66,16.02,15.5,31,14.73,48.23-7.49-.17-4.98-4.41-6.42-8.91-.67-2.08-1.25-5.38-4.29-4.48,2.89,8.38-1.56,6.18-2.51,8.86-1.05,2.97-.68,22.5-1.52,23.31h-4.02v-30.16c0-.71-3.08-11.59-5.35-8.7,3.06,4.8-5.21,26.11-10.72,21.44-1.26-1.07-5.61-25.76-11.45-30.78-1.68-1.45-2.32-1.74-4.64-1.38,1.38,5.85,8.44,29.59,3.88,33.35-1.08.89-6-.4-6.58.14-.49.46,1.48,14.87-2.65,10.72-.69-.69-2.88-20.48-6.71-16.07-.14,7.63,1.49,17.57-5.35,22.77-3.09-3.14-5.9-21.92-6.76-22.73-.75-.7-5.84.61-6.61-.11-.4-.37-1.35-8.28-2.07-10.66-3.73-12.49-9.24-23.07-22.1-28.14,2.82,7.66,3.8,17.21,7.05,24.43,3.95,8.76,16.4,21.26,17.88,30.49.71,4.44-1.31,11.06-.8,16.77.31,3.49,4.63,17.56,2.66,19.45-5.03,4.82-6.23-12.21-7.08-15.03-6.45-21.34-25.73-62.52-39.53-79.76-1.26-1.58-1.52-3.67-4.31-3.05-.17,2.36-.02,4.67.34,7.02,4.4,28.78,31.27,47.47,38.51,74.72-1.81,2.05-21.6-19.17-24.81-20.08-2.66-.75-2.42,1.93-2.01,3.34.09.32,2.21.76,3.09,2.35,3.69,6.67,7.42,14.93,8.99,22.44l-15.42-22.77c-2.73-.55-2.33,1.15-1.75,3.1,1.57,5.32,8.58,11.94,9.14,18.33-1.43,1.53-12.46-9.36-12.08-12.05l-5.32,4c-.91-5.39-17.23-40.99-19.47-41.54-9.18-2.24,6.32,19.76,4.7,21.43l-8.01-4.7c1.7,3.43,3.81,8.29,4.01,12.08.15,2.77.74,3.88-2.68,3.35-.08-4.43-3.33-5.08-5.25-8.78-2.14-4.12.06-8.81-6.83-8.64-.88.9,4.44,20.39,4.03,24.77-.46,4.85-3.72-2.44-3.97-2.68-4.96-4.64-9.69-10.21-13.26-16.28-1.39-2.36-1.15-5.66-2.23-7.15-.93-1.29-12.81-8.54-15.39-6.71-1.13,5.45,4.26,5.86,6.71,8.68,5.4,6.21,5.5,21.98,8.03,30.17-5.27-1.71-4.17,2.57-8.03,2.68-.83-2.77-1.72-5.67-2.84-8.34-1.25-2.98-1.36-4.63-2.41-7.08-1.82-4.21-4.92-10.87-8.16-14.06.39,5.73-.76,12.18.29,17.79s3.01,14.37,4.32,19.81c2.65,10.99,7.68,21.1,10.11,32.1-1.46-.54-3.01-1.11-3.96-2.42-3.31-4.59-9.07-17.38-11.43-23.06-1.4-3.37-1.7-7.35-3.05-10.35-.64-1.42-1.2-3.4-2.98-1.69s-2.43,18.24-4.7,21.45-6.43-.68-7.36-.02c-.49.34-2.55,10.26-2.59,11.6-.31,8.44,5.27,18.41,3.91,27.27-6-3.25-6.73-12.56-9.66-17.81-.98-1.76-1.45-2.73-3.73-2.3v23.45c0,2.37-4.38,11.76-6.47,5.13-2.25-7.13,1.45-16.12,2.14-22.87s-5.73.01-6.18,1.93c-.42,1.81,1.1,4,.79,6.08-1.06,7.06-3.52,13.57-2.36,21.12-1.93.35-1.74-2.54-2.02-3.97-.57-2.84-.57-9.71-1.82-11.34-1.43-1.88-6.48.95-5.55-3.43-2.08.82-5.34,10.22-5.34,11.38,0,7.03,1.34,24.01,0,29.49ZM892.81,302.89c-32.81-22-79.48,5.84-91.7,39.31-.62,1.69-.6,4.19,1.71,3.06,1.57-.77,4.32-6.67,6.08-8.67,13.91-15.81,35.16-31.72,56.56-31.16,19.1.5,34.83,15.48,40.94,32.77,15.75,44.58-12.8,98.79-41.9,131.73-13.1,14.82-45.89,44.4-67,38.11-6.62-1.97-5.86-7.56-10.18-11.92.56-9.36-.46-18.85.12-28.2.31-5.1,2.65-10.97,2.71-16.08.02-2.14-1.2-3.47-2.71-2.03-1.69,1.62-7.52,22.67-7.9,26.29-4.74,45.32,24.48,73.33,64.81,43.37,23.07-17.14,58.32-69.2,68.74-96.11,15.11-39.04,18.77-94.29-20.29-120.47ZM517.68,318.91c-17.05-4.81-42.55-.79-58.54,5.67-10.94,4.42-25.97,12.31-18.67,26.55,5.13,10.02,21.08,8.97,30.65,8.89.4,4.2-7.4,14.21-5.23,17.29,1.67,2.37,19.53,3.89,19.98,6.19-14.38,18.92,14.71,32.46,30.16,32.85,3.38.09,5.27-2.11,3.35-4.06-.19-.19-3.6-.05-5.33-.68-6.55-2.38-17.82-6.81-18.82-14.75-.38-3.01.4-1.56,2.02-1.98,4.67-1.21,10.2-.7,14.44-1.68,2.04-.47,19.7-6.02,19.72-7.06.05-4.2-17.31.84-20.08-.66-1.03-15.95-.21-16.08,14.49-12.48,5.13,1.26,25.65,11.72,26.91,10.96.47-.28,1.04-4.01,2.88-4.47l10.67-4.06c-4.44-7.6-10.92-4.01-16.35-4.99-11.91-2.14-23.57-7.42-35.87-8.47l-1.37-3.31c15.18-1.36,29.35,4.98,44.21,6.69,3.59-3.64-21.3-14.91-23.82-15.71-19.79-6.28-41.17-1.8-61.28-.37-1.16.16-.8-2.5-.66-2.66.93-1.09,23.56-9.27,26.77-10.11,16.86-4.39,38.42-2.61,55.31,1.04,2.98.64,18.71,7.89,19.78,4.34s-2.13-.69-2.44-.92c-.65-.48-1.05-2.71-3.22-4.12-15.46-10.02-34.46-13.68-49.64-17.96ZM824.96,354.66c2.08-2.16,17.23,9.29,21.5,7.49,3.7-2.95,2.68-22.05,4.17-26.72.8-2.51,7.22-4.72,9.84-4.96,30.79-2.79,27.93,58.26,23.09,76.76-2.93,11.21-9.34,21.35-17.02,29.89-3.84,4.27-21.28,17.24-20.14,21.39,2.67,4.27,10.28-.59,13.32-2.74,29.47-20.83,51.18-99.97,24.93-127.96-25.21-26.88-74.67,17.04-63.36,49.96,2.75,7.99,11.06,16.82,18.8,20.08s5.35-3.41,6.38-4.28c3.53-2.98,10.01,10.12,10.41,13.05.75,5.39-2.74,15.63-6.47,19.74-3.04,3.35-15.93,11.39-19.94,8.56-2.52-1.78-18.39-51.14-21.92-57.82-3.26-6.61-5.8,2.74-6.28,6.5-1.53,12.11,2.05,15.98,3.59,25.67,1.55,9.76-4,12.24-7.56,19.94-14.9,32.28,14.48,22.94,33.62,16.2,20.08-7.07,37.48-19.25,34.41-43.02-3.29-25.53-39.18-22.61-41.39-47.72ZM745.87,393.52c-3.52-.28-2.22-.17-2.63,2.03-1.42,7.69-1.18,16.21.1,23.96.55,3.31,5.18,21.1,6.44,22.8.85,1.15,3.74,1.17,4.13.79,1.85-1.79-7.24-43.4-8.04-49.59ZM729.78,400.22c-1.5-1.71-2.38.17-3.02,1.67-3.01,7.06,1.15,36.75,5.92,43.02,1.15,1.51,1.41,2.75,3.8,2.22.33-5.56-5.13-45.12-6.7-46.91ZM720.34,433.82c-.56-.53-4.27-1.24-3.9,1.84,1.18,9.79,11.05,38.35,19.31,43.7,1.64,1.06,2.68,1.65,4.75,1.27-.81-16.88-10.19-30.33-19.61-43.43-.8-1.12-.34-3.17-.56-3.38ZM743.19,515.48c-6.6-14.92-14.93-28.91-20.75-44.24-3.04-7.99-4.17-17.93-8.07-25.43-3.08-5.92-5.88-5.64-5.42,1.32.86,12.99,18.76,57.3,28.22,65.67,1.59,1.41,3.78,2.91,6.03,2.67ZM705.66,483.31c1.1-1.3-2.74-20.68-3.64-23.82-.35-1.23-5.38-17.05-8.41-13.69,2.53,10.4,1.67,25.53,7.78,34.42,1.17,1.71,1.49,3.67,4.27,3.09ZM807.21,468.83c-15.63,2.28-15.59,26.97.77,26.15,16.29-.81,18.88-29.02-.77-26.15ZM684.25,481.99c-.25.18-.56,3.45-2.03,3.99l-6.02-6.67c2.54,16.26,11.31,29.24,19.45,42.91,1.02,1.71-.25,3.38,3.32,2.64-3.16-12.48-5.35-27.96-10.61-39.63-.58-1.3-2.05-4.66-4.1-3.24ZM730.07,542.03c-.89-1.01.87-4.28.49-6.51-1.72-9.98-8.98-21.19-15.21-29.05-1.27-1.6-1.52-3.66-4.31-3.04-1.5,1.59,15.73,37.79,17.85,39.75.54.5,3.43,1.96,3.57,1.79,1.08-3.62-1.76-2.22-2.39-2.94ZM685.56,540.94c-1.45-6.87-7.72-32.71-13.39-35.51-1.2-.59-4.88-1.14-5.36-.66-2.66,2.66,10.86,29.62,14.18,33.39,1.34,1.53,2.05,3.31,4.57,2.78ZM613.18,563.73c.5-3.76-1.09-6.72-2.9-9.82-1.35-2.33-6.1-8.52-9.15-8.93.56,7.52,2.38,19.21,12.05,18.75ZM583.03,567.75v1.34c.87-.45.87-.89,0-1.34Z"/>
        <path class="cls-6" d="M1105.84,789.69c-5,7.35-18.7,22.66-25.61,28.65-4.51,3.91-40.57,26.79-43.51,24.16l17.97-24.24c7.68-11.04,21.15-32.62,24.53-45.16.39-1.44,1.19-4.75-.28-5.64-11.94,11.7-22.68,24.72-34.81,36.22-15.49,14.68-37.94,33.4-56,44.53-23.35,14.39-42.65,10.21-68.52,13.23-20.02,2.34-40.33,8.2-59.8,13.23.17-1.62-.88-2.86.92-4.02,5.17-3.35,12.17-6.27,17.75-10.13,40.63-28.04,140.62-98.31,149.88-147.66.77-4.1.16-8.3.31-12.41-6.7,1.15-3.21,8.08-11.99,4.6-11.85-4.69-2.64-21.37,6.58-24.1,3.84-1.14,13.86-1.15,17.79-.25,14.93,3.39,61.22,43.87,69.97,57.35,11.47,17.69,5.78,35.54-5.18,51.65Z"/>
        <path class="cls-2" d="M574.32,924.26c-2.02.44-2.94-.74-4.44-1.6-41.2-23.39-121.08-73.14-148.91-109.76-2.32-3.05-9.41-15.15-9.94-18.31-.48-2.82,2.31-11.66,3.42-14.78,3.59-10.12,16.2-27.31,23.82-35.15,1.6-1.65,2.85-3.6,5.36-4.03,3.26-.55,1.64,1.51,1.98,3.38,3.39,18.91,11.37,45.56,18.18,63.62,1.03,2.74,7.86,19.43,8.7,20.13,5.38,4.5-1.06-11.44-1.27-12.83-.25-1.61-.57-4.41,1.9-3.23,1.07.51,9.3,17.44,11.38,20.79,17.48,28.06,46.3,50.87,76.3,64.43,2.01.91,3.86.72,2.79-1.45-.9-1.81-13.71-8.96-16.71-11.44-32.33-26.66-70.65-82.54-78.37-124.02-1.31-7.04,5.72-.35,8.61.78,7.05,2.77,14.25,4.63,21.54,6.6,1.89,8.05,3.4,17.1,5.91,24.92,32.26,100.56,153.81,105.65,239.98,128.61.99,5.35-10.13,6.14-14.44,7-26.45,5.3-60.35,11.6-86.86,15-8,1.03-17.83.78-26.04,1.45.72-9.99,2.18-20.13,1.4-30.2-.76-9.74-3.37-10.39-12.41-13.06-5.09-1.5-31.87-7.91-31.87,1.04v22.11Z"/>
        <path class="cls-6" d="M670.51,887c2.81,4.86-2.98,4.08-6.74,3.44-67.89-11.7-124.14-45.93-139.98-116-3.8-16.82-.44-10.5,11.99-12.68,6.45-1.13,15.05-4.29,20.97-7.18,8.23-4.02,9.21-10.56,19.58-.51,11.58,11.23,27.24,48.08,36.64,63.88,11.67,19.63,26.41,40.46,42.39,56.78,2.27,2.32,14.48,11.09,15.16,12.27Z"/>
        <path class="cls-6" d="M606.26,915.1c.75,1.23.34,8.87.22,11.16-5.48,98.36-10.72,196.73-14.78,294.81-1.02,24.55,1.09,54.18-1.28,77.8-1.35,13.5-7.53,11.64-18.85,7.88.6-20.04-.51-40.17.03-60.21,2.56-96.19,15.57-191.99,19.98-288.27.54-11.84-1.43-25.94.12-37.42.32-2.37,2.66-7.75,4.99-8.51,1.85-.61,9.03,1.85,9.59,2.76Z"/>
        <path class="cls-6" d="M1193.24,759.71c.56.31,7.17,8.65,8.11,9.97,5.9,8.35,21.78,33.74,22.89,42.79,1.79,14.57-14.55,23.13-25.78,28.94-40.02,20.7-87.44,33.96-130.29,47.97-8.42,2.75-16.6,8.04-26.08,8.08.16-1.62-.87-2.85.92-4.02,5.67-3.71,18.93-7.68,26.13-11.13,51.79-24.82,105.76-54.65,118.96-115.59.75-3.48-1.76-10.79,5.15-6.99Z"/>
        <path class="cls-6" d="M903.73,1127.7c-.57.4-8.76,1.95-9.08,1.62-.12-10.05.11-20.14.05-30.2-.25-41.05.84-124.44,14.01-161.45.77-2.16,4.5-10.93,6.69-10.84,10.28.43,7.94,19.73,7.36,27.58-1.43,19.5-7.06,40.7-9.34,60.35-4.15,35.7-4.75,71.51-8.06,107.22-.14,1.47-.61,5-1.64,5.74Z"/>
        <path class="cls-6" d="M881.25,1193.65c-.55,8.49.74,17.74-.02,26.13-1.68,18.49-7.13,38.29-9.31,56.36-2.01,16.63-2.52,33.54-4.08,50.21-3.53-.47-14.85-.46-15.9-3.54,5.31-43.14,12.35-86.48,21.33-129.08l7.99-.07Z"/>
        <path class="cls-6" d="M911.88,1140.22c.53.85.51,4.07-.04,4.97-1.75,2.88-23.89,5.65-25.2,12.96,10.01-4.43,34.81-14.73,36.12,4.18.69,9.86-5.81,5.62-11.32,5.75-5.7.13-12.74,2.17-17.46,5.45-4.75,3.31-6.37,11.7-12.7,8.72-14.25-6.7-8.13-32.43,3.53-39.34,4.7-2.79,24.39-7.06,27.09-2.7Z"/>
        <path class="cls-6" d="M902.36,1173.78c7.98-1.32,12.94,8.43,13.73,15.18.85,7.25-1.25,25.81-2.99,33.2-2.49,10.61-8.68,8.83-14.44,1.64-10.03-12.52-3.66-30.74-3.81-45.36.58-1.76,5.77-4.38,7.51-4.67Z"/>
        <path class="cls-3" d="M587.73,1319.63c-2.85,13.75,7.66,51.01.61,61.59-2.44,3.66-8.94,2.61-11.23-.72-5.75-8.33-2.34-49.97-4.12-62.22l14.75,1.34Z"/>
        <path class="cls-3" d="M864.93,1334.59c1.69,2.68-4.98,48.32-6.44,55.22-5.1,3.35-9.45-3.14-9.44-7.81l4.05-51.63c.82-.9,11.5,3.7,11.83,4.23Z"/>
        <path class="cls-3" d="M503.3,562.39c-10.39.22-20,2.66-29.79,5.74-1.92.6-3,2.89-4.66,3.38-.76.22-11,1.65-11.69,1.64-.92-.02-.79-2.29-1.68-2.73-4.94-2.44-8.46-1.76-8.57-9.88.82-4.1,45.96-4.24,51.77-3.57,3.94.46,5.13,1.11,4.63,5.42Z"/>
        <path class="cls-3" d="M508.65,567.77c-1.64,3.32-5.16,5.33-8.15,7.25-3.58,2.29-22.27,13.12-25.01,13.86-7.22,1.95-18.47-3.92-12.43-9.76.79-.77,13.32-5.28,15.52-5.91,9.19-2.62,20.53-4.1,30.07-5.43Z"/>
        <path class="cls-3" d="M581.53,635.59c7.29,6.94,14.6,16.63,18.25,25.97-1.39,1.49-9.58-7.36-10.75-8.67-3.34-3.75-11.37-14.18-12.05-18.79-.82-5.59,3.83.81,4.55,1.49Z"/>
        <path class="cls-3" d="M578.34,688.37c-2.53,2.74-14.93-16.41-15.86-18.31s-1.98-3.53-1.55-5.81c3.15,1.51,18.53,22.9,17.4,24.12Z"/>
        <path class="cls-9" d="M892.81,302.89c39.06,26.19,35.4,81.44,20.29,120.47-10.42,26.91-45.67,78.97-68.74,96.11-40.33,29.96-69.55,1.96-64.81-43.37.38-3.62,6.21-24.67,7.9-26.29,1.51-1.45,2.73-.11,2.71,2.03-.05,5.11-2.39,10.98-2.71,16.08-.58,9.34.44,18.84-.12,28.2,4.32,4.36,3.56,9.94,10.18,11.92,21.11,6.3,53.9-23.28,67-38.11,29.1-32.94,57.64-87.16,41.9-131.73-6.11-17.29-21.84-32.27-40.94-32.77-21.4-.56-42.66,15.34-56.56,31.16-1.76,2-4.51,7.9-6.08,8.67-2.31,1.14-2.33-1.37-1.71-3.06,12.22-33.47,58.89-61.31,91.7-39.31Z"/>
        <path class="cls-9" d="M517.68,318.91c15.18,4.28,34.18,7.94,49.64,17.96,2.17,1.41,2.57,3.64,3.22,4.12.32.23,3.5-2.61,2.44.92s-16.81-3.69-19.78-4.34c-16.89-3.65-38.44-5.43-55.31-1.04-3.21.83-25.84,9.02-26.77,10.11-.14.16-.5,2.82.66,2.66,20.11-1.44,41.49-5.91,61.28.37,2.52.8,27.41,12.07,23.82,15.71-14.87-1.71-29.04-8.05-44.21-6.69l1.37,3.31c12.3,1.05,23.96,6.34,35.87,8.47,5.43.97,11.91-2.61,16.35,4.99l-10.67,4.06c-1.84.46-2.41,4.19-2.88,4.47-1.26.75-21.77-9.71-26.91-10.96-14.7-3.61-15.51-3.48-14.49,12.48,2.77,1.51,20.13-3.53,20.08.66-.01,1.05-17.67,6.59-19.72,7.06-4.24.98-9.77.47-14.44,1.68-1.63.42-2.4-1.03-2.02,1.98,1,7.94,12.28,12.36,18.82,14.75,1.73.63,5.14.48,5.33.68,1.92,1.95.04,4.14-3.35,4.06-15.45-.39-44.54-13.94-30.16-32.85-.45-2.29-18.31-3.82-19.98-6.19-2.17-3.08,5.63-13.09,5.23-17.29-9.56.08-25.52,1.13-30.65-8.89-7.29-14.25,7.74-22.13,18.67-26.55,15.99-6.46,41.49-10.48,58.54-5.67Z"/>
        <path class="cls-9" d="M824.96,354.66c2.21,25.12,38.1,22.2,41.39,47.72,3.06,23.76-14.33,35.95-34.41,43.02-19.14,6.74-48.52,16.08-33.62-16.2,3.56-7.71,9.11-10.18,7.56-19.94-1.54-9.69-5.12-13.57-3.59-25.67.48-3.76,3.02-13.1,6.28-6.5,3.53,6.68,19.39,56.04,21.92,57.82,4.01,2.83,16.9-5.21,19.94-8.56,3.73-4.11,7.22-14.35,6.47-19.74-.41-2.93-6.88-16.02-10.41-13.05-1.03.87,1.41,7.56-6.38,4.28s-16.05-12.09-18.8-20.08c-11.31-32.92,38.15-76.83,63.36-49.96,26.26,27.99,4.54,107.13-24.93,127.96-3.04,2.15-10.65,7.01-13.32,2.74-1.14-4.14,16.3-17.12,20.14-21.39,7.68-8.54,14.09-18.68,17.02-29.89,4.84-18.5,7.7-79.55-23.09-76.76-2.62.24-9.04,2.44-9.84,4.96-1.49,4.67-.47,23.77-4.17,26.72-4.27,1.81-19.41-9.64-21.5-7.49Z"/>
        <path class="cls-9" d="M807.21,468.83c19.65-2.86,17.07,25.34.77,26.15-16.36.82-16.41-23.88-.77-26.15Z"/>
        <path class="cls-9" d="M743.19,515.48c-2.24.24-4.44-1.26-6.03-2.67-9.46-8.37-27.36-52.69-28.22-65.67-.46-6.96,2.34-7.24,5.42-1.32,3.91,7.5,5.04,17.44,8.07,25.43,5.83,15.33,14.16,29.31,20.75,44.24Z"/>
        <path class="cls-9" d="M720.34,433.82c.22.21-.25,2.27.56,3.38,9.42,13.09,18.8,26.55,19.61,43.43-2.07.38-3.11-.2-4.75-1.27-8.26-5.35-18.14-33.91-19.31-43.7-.37-3.08,3.34-2.37,3.9-1.84Z"/>
        <path class="cls-9" d="M684.25,481.99c2.04-1.41,3.51,1.95,4.1,3.24,5.26,11.67,7.46,27.15,10.61,39.63-3.58.74-2.31-.93-3.32-2.64-8.13-13.68-16.91-26.65-19.45-42.91l6.02,6.67c1.47-.53,1.78-3.81,2.03-3.99Z"/>
        <path class="cls-9" d="M745.87,393.52c.8,6.19,9.89,47.79,8.04,49.59-.39.37-3.28.35-4.13-.79-1.26-1.7-5.9-19.49-6.44-22.8-1.28-7.76-1.52-16.27-.1-23.96.41-2.2-.89-2.31,2.63-2.03Z"/>
        <path class="cls-9" d="M729.78,400.22c1.57,1.78,7.03,41.35,6.7,46.91-2.39.53-2.65-.7-3.8-2.22-4.77-6.27-8.93-35.96-5.92-43.02.64-1.5,1.52-3.38,3.02-1.67Z"/>
        <path class="cls-9" d="M685.56,540.94c-2.52.53-3.23-1.26-4.57-2.78-3.32-3.77-16.83-30.73-14.18-33.39.48-.48,4.15.07,5.36.66,5.67,2.8,11.94,28.64,13.39,35.51Z"/>
        <path class="cls-9" d="M730.07,542.03c.64.72,3.47-.68,2.39,2.94-.15.17-3.03-1.29-3.57-1.79-2.13-1.96-19.35-38.16-17.85-39.75,2.79-.61,3.04,1.44,4.31,3.04,6.23,7.85,13.49,19.06,15.21,29.05.38,2.24-1.38,5.5-.49,6.51Z"/>
        <path class="cls-9" d="M705.66,483.31c-2.78.58-3.09-1.38-4.27-3.09-6.11-8.9-5.25-24.02-7.78-34.42,3.03-3.36,8.06,12.46,8.41,13.69.9,3.14,4.74,22.52,3.64,23.82Z"/>
        <path class="cls-1" d="M613.18,563.73c-9.67.46-11.49-11.24-12.05-18.75,3.06.41,7.8,6.6,9.15,8.93,1.81,3.11,3.4,6.06,2.9,9.82Z"/>
        <path class="cls-1" d="M583.03,567.75c.87.45.87.89,0,1.34v-1.34Z"/>
        <path class="cls-9" d="M126.68,983.23c-1.82-.04-2.61-.47-4.09.88s-8.68,13.3-10.4,16.13c-23.13,38.07-40.18,79.2-54.15,121.42-7.69,23.22-13.28,47.15-20.49,70.65-1.35,4.39-2.53,9.74-5.36,13.38-1.77.03-5.63-20.98-5.86-23.6-4.42-50.65,29.36-129.1,54.55-172.95,64.54-112.38,181.24-174.33,305.85-198.08,2.47-1.66-.17-9.24.08-13.26.69-11.06,6.62-23.82,12.73-32.91,4.52-6.73,28.79-31.55,26.71-37.57-1.19-3.46-6.8-7.31-8.12-12.09-.89-3.2-.08-6.62-1.31-9.41-.85-1.93-4.56-3.56-5.39-5.43-1.03-2.3,5.09-20.98,6.85-23.97,4.26-7.25,17.82-11.76,20.08-18.79,2.94-9.13-5.68-13.89-7.13-22.5-1.92-11.43-.56-18.84,6.41-27.79,2.7-3.47,13.45-11.5,14.09-12.76,2.02-4.01-4.46-13.89-7.52-16.66-11.72-10.63-28.6-7.69-28.14-30.94.23-11.59,12.45-24.02,12.15-25.42-.74-3.41-13.27-1.67-16.73-2.05-41.66-4.6-48.99-26.73-30.87-63,9.43-18.88,42.53-63.84,41.77-82.2-.59-14.16-16.83-19.17-15.49-33.53,1.5-16.12,13.69-44.74,17.98-62.48,12.82-53.03,13.8-81.4,48.38-127.19,76.53-101.33,263.44-132.33,380.1-101.61,129.67,34.15,194.56,150.51,187.41,280.45-4.2,76.31-48.93,137.28-58.86,214.55-.54,4.19-2.88,27.57-1.65,29.19,64.34,10.58,153.47,28.99,193.46,85.59,19.62,27.77,17.61,59.69,32.95,89.01,9.92,18.96,39.65,52.33,39.15,73.42-.11,4.4-3.78,15.54-6.73,18.83-3.37,3.76-10.13,3.8-10.73,8.69,4.53.28,8.66,2.25,12.73,4.03,87.86,38.56,195.71,90.06,250,172.18,28.02,42.38,48.52,94.61,46.88,146.12l-3.27-.75c-14.62-39.84-29.88-79.61-51.1-116.43l-3.3-.79c-63.15,71.55-94.78,161.57-128.84,249.11l-3.8,2.22c-1.28-1.46,2.17-32.03,2.85-36.67,11.4-76.98,65.47-169.81,117.03-227.44,1.33-1.48,4.73-2.58,4.85-3.36.32-2.1-11.14-17.02-13.52-19.98-52.62-65.52-136.77-110.89-213.09-143.41-10.45-4.45-33.03-15.94-43.24-13.79-2.96.62-11.15,4.04-8.86,7.59l74.9,29.63c-15.35-1.86-30.76-3.54-45.84-7.09-15.27-3.59-46.95-17.87-60.12-15.1-8.25,1.74-38.75,13.89-45.96,18.36-7.04,4.36-13.16,14.5-18.96,19.9-19.02,17.71-49.61,39.35-72.11,52.54-10.91,6.4-34.49,19.23-45.98,22.39-2.51.69-1.96-.61-1.84-2.52,39.04-21.56,72.86-48.72,105.74-78.56,1.49-1.35,3.36-1.98,2.8-4.56-51.7,12.35-102.18,29.42-151.09,49.92-1.44,7.65-4.12,15.87-5.38,23.45-6.81,41.14-12.27,97.38-13.72,139.07-.15,4.27-.82,14.76.67,18.06,1.43,3.15,10.72,7.2,14.06,11.41,8.15,10.27,11.24,33.55,2.7,43.87-2,2.41-6.77,3.88-7.78,7.34-3.32,11.34,4.9,36.27-13.64,41.31-9.17,2.49-16.31-2.48-24.16-6.06-3.17,27.36-6.82,54.94-8.07,82.41-6.47,21.38-.34,66.95-14.67,83.12-7.37,8.32-25.41,1.77-26.9-10.7-3.15-26.43,4.5-65.87,7.97-92.61,2.64-20.33,4.6-40.95,8.51-61.18,2.19-11.34,11.97-39.02,10.29-48.53-.67-3.78-4.67-8.59-4.98-13.82-.42-7.16,2.11-17.85,6.39-23.79,3.85-5.34,16.65-12.3,17.39-16.11,1.2-27.5-.03-55.63,1.38-83.06.84-16.34,5.05-35.08,4.15-52.14l7.89-41.01c-.89-.85-12.04,4.4-14.44,4.98-24.63,5.92-46.38.03-70.61-1.02-17.59-.77-39.67,2.18-56.37.06-1.86-.24-3.92-.75-1.98-2.66,29.15-7.45,57.65-17.71,86.82-25.1,20.05-5.08,66.71-17.33,85.37-13.76,3.97.76,10.24,8.68,15.8,7.8,54.47-24.89,115.82-40.24,165.47-74.53,50.87-35.13,73.9-82.82,62.96-145.33-8.46-48.32-59.06-76.73-101.52-91.47-18.99-6.59-38.57-12.55-58.9-12.79,2.52,8.16,11.8,9.11,17.65,12.22,25.37,13.51,53.2,25.53,75.55,46.68,3.73,3.52,19.15,23.27,21.4,24.17,2.7,1.08,2.12-1.71,1.73-3.08-1.09-3.92-11.27-19.95-9.12-22.37,5.44-.37,4.37,5.08,5.8,7.62,5.76,10.17,12.91,19.39,17.29,31.72,41.82,117.53-130.83,177.1-214.74,199.91-13.38,3.64-58.31,16.74-69.04,16.74h-20.77c.46-2.62,2.82-2.2,4.63-2.74,27.73-8.24,56.12-15.06,83.2-25.36,4.5-1.71,23.54-9.29,26.04-11.49,1.24-1.1,1.77-1.42,1.38-3.29-7.27,1.51-14.81.68-22.09,1.35-45.9,4.19-98.32,19.54-137.83,43.1-16.94,10.1-50.82,38.22-67.84,42.06-8.95,2.02-5.32.07-9-6.16-13.29.24-26.72.58-39.98,1.41-17.05,1.08-31.59,3.35-49.66,2.72-3.16-.11-14.72-3.85-9.08,2.68,11.53,13.34,50.22,30.07,67.43,35.51,1.62.51,5.18.43,5.37.63.14.14.12,3.86-.01,4.01-1.33,1.39-33.4-5.8-37.83-7.05-12.87-3.62-24.6-10.16-37.21-14.38l-2.63,86.5c-5.41,98.27-14.44,197.88-12.11,296.14.28,11.6,7.71,32.84-10.18,35.4-24.13,3.46-26.14-11.31-27.41-31.32-7.59-119.42,10.12-249.1,17.47-368.64.85-13.88,1.16-28.08,1.13-41.99l-82.87-48.46c4.44,41.22,20.19,81.63,39.53,117.94,1.08,2.03.96,3.62-1.32,2.67-1.81-.76-17.66-24.89-19.72-28.54-17.37-30.8-29.75-69.19-36.18-103.88-24.35-14.7-46.68-33.08-67.48-52.47-5.02-4.68-3.69-9.74-13.28-9.47-10.17.29-31.04,6.41-42.04,8.99-70.71,16.55-126.6,39.51-181.2,88.19-28.75,25.63-30.94,34.51-42.79,69.78-.78,2.33-2.25,8.31-5.44,7.3v-21.44ZM488.55,703.79c1.34-5.47,0-22.46,0-29.49,0-1.16,3.26-10.55,5.34-11.38-.94,4.38,4.11,1.55,5.55,3.43,1.25,1.63,1.25,8.5,1.82,11.34.29,1.44.09,4.32,2.02,3.97-1.16-7.55,1.3-14.05,2.36-21.12.31-2.08-1.21-4.27-.79-6.08.44-1.92,6.89-8.93,6.18-1.93s-4.39,15.75-2.14,22.87c2.09,6.64,6.47-2.76,6.47-5.13v-23.45c2.29-.43,2.75.54,3.73,2.3,2.93,5.24,3.66,14.56,9.66,17.81,1.36-8.86-4.21-18.83-3.91-27.27.05-1.35,2.11-11.26,2.59-11.6.94-.66,5.18,3.1,7.36.02s2.93-19.75,4.7-21.45,2.34.26,2.98,1.69c1.34,3,1.65,6.98,3.05,10.35,2.36,5.68,8.12,18.47,11.43,23.06.94,1.31,2.5,1.88,3.96,2.42-2.43-11-7.46-21.11-10.11-32.1-1.31-5.44-3.31-14.44-4.32-19.81s.1-12.06-.29-17.79c3.24,3.19,6.34,9.86,8.16,14.06,1.06,2.45,1.16,4.1,2.41,7.08,1.12,2.66,2.01,5.57,2.84,8.34,3.86-.11,2.76-4.38,8.03-2.68-2.53-8.19-2.63-23.96-8.03-30.17-2.45-2.82-7.84-3.23-6.71-8.68,2.59-1.84,14.47,5.42,15.39,6.71,1.08,1.5.84,4.8,2.23,7.15,3.58,6.07,8.31,11.64,13.26,16.28.25.23,3.51,7.53,3.97,2.68.41-4.38-4.91-23.88-4.03-24.77,6.88-.17,4.69,4.52,6.83,8.64,1.92,3.69,5.17,4.35,5.25,8.78,3.42.53,2.83-.58,2.68-3.35-.2-3.79-2.31-8.65-4.01-12.08l8.01,4.7c1.62-1.67-13.88-23.68-4.7-21.43,2.23.54,18.55,36.15,19.47,41.54l5.32-4c-.38,2.69,10.65,13.57,12.08,12.05-.56-6.39-7.56-13.01-9.14-18.33-.57-1.94-.98-3.64,1.75-3.1l15.42,22.77c-1.57-7.51-5.3-15.77-8.99-22.44-.88-1.59-2.99-2.03-3.09-2.35-.41-1.41-.65-4.09,2.01-3.34,3.22.91,23,22.13,24.81,20.08-7.25-27.25-34.12-45.95-38.51-74.72-.36-2.34-.51-4.66-.34-7.02,2.79-.62,3.05,1.47,4.31,3.05,13.79,17.23,33.07,58.42,39.53,79.76.86,2.83,2.05,19.85,7.08,15.03,1.98-1.89-2.34-15.96-2.66-19.45-.51-5.71,1.51-12.33.8-16.77-1.48-9.22-13.94-21.72-17.88-30.49-3.25-7.22-4.23-16.77-7.05-24.43,12.86,5.08,18.37,15.65,22.1,28.14.71,2.38,1.67,10.29,2.07,10.66.77.71,5.86-.6,6.61.11.87.82,3.67,19.59,6.76,22.73,6.84-5.2,5.22-15.15,5.35-22.77,3.84-4.41,6.02,15.38,6.71,16.07,4.14,4.14,2.16-10.26,2.65-10.72.57-.54,5.5.75,6.58-.14,4.56-3.76-2.5-27.5-3.88-33.35,2.32-.37,2.96-.07,4.64,1.38,5.84,5.03,10.19,29.72,11.45,30.78,5.51,4.67,13.77-16.64,10.72-21.44,2.27-2.89,5.35,7.99,5.35,8.7v30.16h4.02c.84-.8.47-20.33,1.52-23.3.95-2.68,5.4-.48,2.51-8.86,3.03-.9,3.62,2.4,4.29,4.48,1.44,4.5-1.07,8.74,6.42,8.91.76-17.24-10.07-32.22-14.73-48.23,15.04,2.35,16.59,21.88,24.8,32.15,1.12-12.25-6.92-22.76-11.39-33.49,5.12-4.81,16.9,19.69,18.06,22.8,6.02,16.05,4.23,24.44,1.91,40.72-.3,2.08-2.3,3.58-2.41,5.43-.15,2.61,2.23,6.81,1.21,10.12,5.63-3.01,5.87-11.87,8.7-16.08,1.58-2.34,3.2-.27,3.23,1.85.21,14.4-14.84,50.32-24.02,61.8-1.98,2.48-4.42,5.33-8.03,4.69-1.42-1.47,6.21-26.39-2.68-26.79.2,11.49-3.9,24.69-11.38,33.52-.95,1.12-7.4,8.16-8.72,6.68,1.62-10.97,7.02-20.66,5.35-32.17h-4.01c-.62,7.51-3.2,15.88-5.68,23.14-1.28,3.73-3.81,11.72-5.15,14.67-1.19,2.63-7.61,5.53-5.24,11.77,1.12,1.17,12.55-3.91,10.7.66-.94,2.32-14.35,9.48-17.44,10.72-4.46,1.78-19.43,3.94-20.08,4.74-.13.16-.14,3.84,0,3.99.68.72,11.96,1.09,14.09,1.36,1.85.23,3.96.69,2,2.65-3.72,3.72-30.74,5.41-36.68,9.58-6.23,4.37,3.36,4.2,3.17,9.2l-32.15,4.03c-2.76,6.29,24.22,11.26,13.85,14.55-4.48,1.42-25.4-4.16-32.62-4.53-1.19-.06-5.52-1.12-5.34,1.37.11,1.41,20.81,12.23,24.27,14.57,22.13,14.92,37.41,36.79,57.44,53.81,8.84,7.52,18.27,14.01,28.15,20.1.65,3.66-3.39,1.61-5.1,1.07-19.07-6.04-39.01-17.73-55.65-28.79-2.61-1.74-27.54-21.88-29.03-19.88,2.24,43.14,45.64,104.5,85.41,120.3,11.3,4.49,37.8,11.87,49.63,13.49,1.52.21,2.92.42,4.36-.33,59.32-33.43,118.57-69.09,168.86-115.35,15.41-14.17,49.42-49.01,57.4-67.23,1.07-2.45,1.71-3.51,1.62-6.44-.23-7.98-13.98-34.92-17.1-46.01-4.11-14.58-6.77-32.57-9.76-45.41-8.51-36.61-3.04-101.55,6.31-138.2,7.53-29.49,22.05-54.81,32.58-82.68,46.79-123.96,8.36-277.83-118.83-334.23-120.65-53.5-342.75-20.47-416.52,99.1-22.8,36.95-22.94,64.95-33.91,104.14-5.07,18.12-19.49,39.75-17.65,58.46,1.17,11.92,9.58,18.68,11.62,28.58,7.47,36.36-41.31,78.32-45.12,112.42-3.73,33.41,28.67,17.57,46.08,17.84,14.48.23,27.06,12.18,40.89-.57,6.83-6.3,4.91-12.42,6.03-20.76,21.54,20.72-6.66,33.58-20.75,45.54,5.8,5.59,10.05,2.29,15.1,2.98,10,1.37,15.27,3.19,25.77,3.73,3.65.19,7.41,2.19,11.39,1.35,2.38-2.38-14.5-29.9,3.35-17.42,7.6,5.32,19.43,22.58,22.17,31.44,4.67,15.1,2.57,34.77,1.28,50.33-5.47,1.01-3.29-1.48-5.27-4.74s-10.24-16.2-13.88-15.22c-2.01.54-10.48,8.55-13.64,10.6-10.82,7.01-20.84,12.33-33.7,14.55-4.57.79-8.83-.74-13.57,1.17-1.91.77-9.65,8.43-11.06,10.38-9.14,12.67,1.13,20.51,14.49,17.16,5.56-1.39,20.53-13.17,25.81-4.89,6.16,9.67-12.49,21.94-18.21,28.58-8.56,9.92-25.98,29.36-26.16,42.22-.05,3.71,0,3.33,1.56.21,4.17-8.4,8.96-20.97,18.59-23.63-1.28,13.67-4.72,26.33-1.32,40.19l2.29-13.1c1.29-3.21,5.14-2.76,7.14-4.92,1.51-1.64,4.87-11.13,5.96-11.49,6.41-2.12,3.23,10.86,3.58,13.75.22,1.83,6.13,17.97,7.81,11.07ZM503.3,562.39c.5-4.32-.69-4.97-4.63-5.42-5.8-.67-50.95-.53-51.77,3.57.1,8.12,3.62,7.44,8.57,9.88.89.44.76,2.71,1.68,2.73.69.02,10.94-1.42,11.69-1.64,1.66-.49,2.74-2.78,4.66-3.38,9.79-3.08,19.41-5.51,29.79-5.74ZM508.65,567.77c-9.55,1.33-20.88,2.81-30.07,5.43-2.2.63-14.73,5.15-15.52,5.91-6.04,5.85,5.21,11.71,12.43,9.76,2.75-.74,21.44-11.57,25.01-13.86,2.99-1.92,6.51-3.93,8.15-7.25ZM581.53,635.59c-.72-.68-5.36-7.08-4.55-1.49.67,4.62,8.7,15.04,12.05,18.79,1.17,1.31,9.36,10.16,10.75,8.67-3.65-9.34-10.96-19.03-18.25-25.97ZM578.34,688.37c1.13-1.22-14.25-22.61-17.4-24.12-.43,2.28.62,3.9,1.55,5.81s13.32,21.05,15.86,18.31ZM1105.84,789.69c10.96-16.11,16.65-33.96,5.18-51.65-8.75-13.49-55.04-53.96-69.97-57.35-3.94-.89-13.95-.89-17.79.25-9.21,2.73-18.42,19.41-6.58,24.1,8.78,3.48,5.29-3.45,11.99-4.6-.15,4.11.46,8.31-.31,12.41-9.26,49.34-109.25,119.62-149.88,147.66-5.58,3.85-12.58,6.78-17.75,10.13-1.8,1.17-.75,2.41-.92,4.02,19.47-5.03,39.78-10.89,59.8-13.23,25.87-3.02,45.17,1.16,68.52-13.23,18.06-11.13,40.51-29.84,56-44.53,12.13-11.5,22.87-24.52,34.81-36.22,1.47.89.67,4.2.28,5.64-3.38,12.55-16.85,34.12-24.53,45.16l-17.97,24.24c2.94,2.64,39-20.24,43.51-24.16,6.91-5.99,20.61-21.3,25.61-28.65ZM574.32,924.26v-22.11c0-8.95,26.78-2.55,31.87-1.04,9.04,2.67,11.65,3.32,12.41,13.06.78,10.07-.68,20.22-1.4,30.2,8.2-.67,18.03-.42,26.04-1.45,26.51-3.4,60.42-9.7,86.86-15,4.31-.86,15.43-1.65,14.44-7-86.17-22.96-207.72-28.05-239.98-128.61-2.51-7.82-4.02-16.87-5.91-24.92-7.29-1.97-14.49-3.84-21.54-6.6-2.89-1.13-9.92-7.82-8.61-.78,7.72,41.48,46.03,97.36,78.37,124.02,3,2.47,15.82,9.63,16.71,11.44,1.07,2.16-.78,2.35-2.79,1.45-30-13.55-58.82-36.36-76.3-64.43-2.09-3.35-10.31-20.28-11.38-20.79-2.47-1.17-2.15,1.62-1.9,3.23.21,1.38,6.66,17.32,1.27,12.83-.84-.7-7.67-17.39-8.7-20.13-6.81-18.06-14.79-44.7-18.18-63.62-.33-1.87,1.28-3.93-1.98-3.38-2.51.42-3.76,2.38-5.36,4.03-7.62,7.84-20.23,25.03-23.82,35.15-1.11,3.12-3.89,11.96-3.42,14.78.53,3.16,7.63,15.27,9.94,18.31,27.82,36.63,107.71,86.37,148.91,109.76,1.5.85,2.42,2.03,4.44,1.6ZM670.51,887c-.68-1.18-12.89-9.95-15.16-12.27-15.98-16.33-30.73-37.16-42.39-56.78-9.39-15.8-25.05-52.65-36.64-63.88-10.37-10.05-11.35-3.51-19.58.51-5.91,2.89-14.52,6.05-20.97,7.18-12.43,2.18-15.8-4.14-11.99,12.68,15.85,70.07,72.09,104.3,139.98,116,3.76.65,9.55,1.43,6.74-3.44ZM1193.24,759.71c-6.91-3.79-4.4,3.51-5.15,6.99-13.2,60.94-67.17,90.77-118.96,115.59-7.2,3.45-20.47,7.42-26.13,11.13-1.79,1.17-.76,2.4-.92,4.02,9.48-.03,17.66-5.33,26.08-8.08,42.85-14.01,90.26-27.26,130.29-47.97,11.23-5.81,27.58-14.36,25.78-28.94-1.11-9.05-16.99-34.43-22.89-42.79-.93-1.32-7.54-9.66-8.11-9.97ZM606.26,915.1c-.56-.91-7.73-3.37-9.59-2.76-2.33.77-4.67,6.14-4.99,8.51-1.55,11.48.42,25.58-.12,37.42-4.41,96.28-17.42,192.08-19.98,288.27-.53,20.04.58,40.17-.03,60.21,11.32,3.76,17.5,5.62,18.85-7.88,2.37-23.62.26-53.25,1.28-77.8,4.07-98.07,9.31-196.45,14.78-294.81.13-2.29.54-9.93-.22-11.16ZM903.73,1127.7c1.03-.73,1.5-4.27,1.64-5.74,3.31-35.71,3.9-71.52,8.06-107.22,2.29-19.65,7.91-40.85,9.34-60.35.58-7.85,2.92-27.14-7.36-27.58-2.19-.09-5.92,8.69-6.69,10.84-13.17,37.01-14.26,120.4-14.01,161.45.06,10.06-.17,20.16-.05,30.2.32.34,8.51-1.21,9.08-1.62ZM911.88,1140.22c-2.7-4.36-22.39-.09-27.09,2.7-11.66,6.91-17.77,32.64-3.53,39.34,6.34,2.98,7.95-5.41,12.7-8.72,4.72-3.29,11.77-5.32,17.46-5.45,5.52-.13,12.01,4.11,11.32-5.75-1.32-18.92-26.11-8.62-36.12-4.18,1.32-7.3,23.45-10.08,25.2-12.96.55-.9.57-4.12.04-4.97ZM902.36,1173.78c-1.74.29-6.93,2.91-7.51,4.67.15,14.61-6.22,32.84,3.81,45.36,5.76,7.19,11.95,8.97,14.44-1.64,1.74-7.4,3.83-25.95,2.99-33.2-.79-6.75-5.75-16.51-13.73-15.18ZM881.25,1193.65l-7.99.07c-8.98,42.61-16.02,85.94-21.33,129.08,1.05,3.08,12.37,3.07,15.9,3.54,1.56-16.67,2.07-33.58,4.08-50.21,2.18-18.07,7.63-37.87,9.31-56.36.76-8.39-.53-17.64.02-26.13ZM587.73,1319.63l-14.75-1.34c1.78,12.24-1.63,53.88,4.12,62.22,2.3,3.33,8.79,4.38,11.23.72,7.05-10.59-3.46-47.84-.61-61.59ZM864.93,1334.59c-.33-.53-11.01-5.13-11.83-4.23l-4.05,51.63c0,4.67,4.35,11.17,9.44,7.81,1.46-6.9,8.13-52.54,6.44-55.22Z"/>
      </g>
    </g>
  </g>
  <circle class="cls-5" cx="750" cy="750" r="744.75"/>
</svg>